# xmcd
#
# Track frame offsets:
#	150
#	30679
#	64884
#	97739
#	156769
#
# Disc length: 3325 seconds
#
# Revision: 1
# Processed by: cddbd v1.5.2PL0 Copyright (c) Steve Scherf et al.
# Submitted via: audiograbber 1.83.01
#
DISCID=340cfb05
DTITLE=Micky and The Hartbeats - 68-10-08 The Matrix, San Francisco CA
DYEAR=1900
DGENRE=
TTITLE0=Jam 3
TTITLE1=Jam 3
TTITLE2=Jam 3
TTITLE3=Prisoner Blues
TTITLE4=Jam 3
EXTD=
EXTT0=
EXTT1=
EXTT2=
EXTT3=
EXTT4=
PLAYORDER=
